<svg width="419" height="416" viewBox="0 0 419 416" fill="none" xmlns="http://www.w3.org/2000/svg">
<path d="M2.04866 368.521C22.7366 392.657 53.1939 408.173 84.2258 413.345C98.5924 415.643 112.959 416.218 127.326 413.632C140.83 411.333 154.335 405.299 166.403 398.691C172.15 395.53 177.609 391.795 182.781 388.059C189.389 383.175 195.998 378.29 202.032 372.831C213.525 362.199 220.996 347.546 225.881 332.892C231.053 317.376 233.351 300.998 234.213 284.907C235.075 267.092 234.501 248.416 231.053 230.889C227.317 212.787 218.41 195.547 202.607 185.203C188.815 176.295 171.575 175.146 157.208 183.479C144.278 190.949 135.084 204.454 131.061 218.533C126.751 234.049 129.337 250.14 137.095 264.219C153.473 293.814 188.815 311.342 220.996 316.801C237.661 319.674 255.476 319.674 271.854 314.502C289.381 308.756 303.46 297.262 313.517 281.746C324.148 265.081 330.757 245.83 337.078 227.441C343.974 207.615 350.008 187.501 354.606 167.101C364.088 126.587 369.547 84.9235 370.984 43.2603C371.271 32.9163 371.271 22.8598 370.984 12.5159C370.696 3.32121 356.33 3.32121 356.617 12.5159C358.341 90.0956 344.836 167.675 317.252 240.083C311.219 255.886 304.61 272.839 292.829 285.194C282.485 296.113 268.406 302.147 253.752 303.871C238.236 305.595 222.433 303.584 207.779 298.986C193.699 294.676 179.62 288.068 168.127 278.586C156.921 269.391 147.726 257.61 144.278 243.244C141.405 231.463 144.853 218.246 151.462 207.902C158.07 198.133 168.127 191.237 179.62 191.811C193.987 192.673 205.193 204.454 211.227 216.809C218.985 232.613 219.272 251.864 219.847 269.104C220.134 283.183 218.985 297.55 216.399 311.629C213.525 325.421 209.215 339.213 201.457 351.281C193.987 362.774 182.206 370.82 171.288 378.865C160.944 386.335 149.45 391.795 137.382 396.105C126.176 400.415 115.545 401.277 103.477 400.989C76.7551 400.127 48.8838 390.358 27.6212 373.405C21.8746 368.808 16.99 363.923 12.1053 358.464C9.51931 355.591 4.63465 355.878 2.04866 358.464C-0.824665 361.337 -0.537333 365.647 2.04866 368.521Z" fill="black"/>
<path d="M287.083 137.218C302.311 105.037 320.126 74.2923 339.952 44.697C344.836 37.5137 350.008 30.043 355.18 23.1471C357.192 20.5611 359.203 17.1131 362.076 15.1018C364.088 13.6651 364.662 14.2399 366.099 16.2512C368.398 19.1245 370.122 22.2852 371.846 25.4459C374.144 29.1812 376.156 33.2038 378.167 37.2264C382.19 44.6971 385.638 52.455 388.798 60.5003C395.694 78.3149 400.866 96.9916 404.027 115.668C404.602 119.404 409.486 121.702 412.934 120.553C416.957 119.404 418.681 115.668 417.819 111.646C414.658 93.2564 409.774 75.1543 402.878 57.627C399.43 48.7197 395.694 39.8124 391.384 31.4798C387.362 23.7218 383.339 15.3892 378.167 8.49318C372.42 0.735198 363.513 -2.71272 354.893 2.45926C347.135 7.34392 341.963 16.5385 336.791 23.7218C325.585 39.5251 314.954 55.903 305.185 72.5683C294.266 91.2449 283.922 110.209 274.727 129.748C273.003 133.196 273.865 137.505 277.313 139.517C280.474 141.815 285.646 140.666 287.083 137.218Z" fill="black"/>
</svg>
